<?xml version="1.0" encoding="UTF-8"?>
<svg id="uuid-c8cdd803-c4bd-412e-9433-6b06152666f7" data-name="Layer 2" xmlns="http://www.w3.org/2000/svg" width="67.7" height="67.7" viewBox="0 0 67.7 67.7">
  <g id="uuid-cc80d9c8-c68c-4f63-a96b-7f7e4c9d4d2f" data-name="Layer 1">
    <g>
      <path d="M67.3,19.8l-11.7-8.5c.1-.4,.2-.8,.2-1.3,0-2-1.6-3.6-3.6-3.6s-1,.1-1.4,.3c-1.6-1.7-3.4-3.1-5.5-4.2-3.1-1.6-6.6-2.5-10.1-2.5h-3.6c-4.4,0-8.5,1.8-11.6,4.7-1-.2-2-.3-3.1-.3C7.6,4.4,0,12,0,21.3s4.4,13.1,10.6,15.6v24.5c0,.3,.1,.5,.3,.7l5.3,5.3c.2,.2,.4,.3,.7,.3s.5,0,.7-.3l5.3-5.3c.2-.2,.3-.4,.3-.7v-2.6c0-.3-.1-.5-.3-.7l-1.9-1.9,1.9-1.9c.4-.4,.4-1,0-1.4l-1.9-1.9,1.9-1.9c.4-.4,.4-1,0-1.4l-1.9-1.9,1.9-1.9c.2-.2,.3-.4,.3-.7v-6c5.8-2.3,10-7.8,10.5-14.4,1,.2,2,.3,3,.4V57.6c0,.5,.4,1,1,1h29.1c.5,0,1-.4,1-1V20.6c0-.3-.2-.6-.4-.8Zm-13.5-9.8c0,.9-.7,1.7-1.7,1.7s-1.7-.7-1.7-1.7,.7-1.7,1.7-1.7,1.7,.7,1.7,1.7ZM21.1,42.5l-2.4,2.4c-.4,.4-.4,1,0,1.4l1.9,1.9-1.9,1.9c-.4,.4-.4,1,0,1.4l1.9,1.9-1.9,1.9c-.4,.4-.4,1,0,1.4l2.4,2.4v1.8l-4.3,4.3-4.3-4.3v-23.4c1.4,.4,2.8,.6,4.3,.6s2.9-.2,4.3-.6v4.9Zm-4.3-6.3c-8.2,0-14.9-6.7-14.9-14.9S8.7,6.4,16.9,6.4s1,0,1.5,0c-.7,1-1.4,2-1.9,3.2,0,0,0,0,0,0-2.2,.2-3.9,2.1-3.9,4.3s1.9,4.3,4.3,4.3,4.3-1.9,4.3-4.3-1.1-3.3-2.7-4c.6-1.1,1.3-2.2,2.1-3.1,6.4,1.7,11.1,7.5,11.1,14.4s-6.7,14.9-14.9,14.9Zm.7-19.9c-.2,0-.4,0-.7,0-1.3,0-2.3-1-2.3-2.3s.6-1.7,1.4-2.1c0,0,0,.2,0,.2,0,1.5,.6,3,1.6,4.1Zm1.5-1.3c-.7-.7-1.1-1.7-1.1-2.7s0-.1,0-.2c.8,.4,1.3,1.2,1.3,2.1s0,.6-.2,.9Zm14.7,5.6c-.3-7.1-5-13-11.4-15.2,2.6-2.1,5.8-3.3,9.3-3.3h3.6c3.2,0,6.4,.8,9.2,2.3,1.8,1,3.5,2.2,4.9,3.7-.4,.6-.7,1.3-.7,2.1s0,.9,.2,1.3l-11.7,8.5c-.3,.2-.4,.5-.4,.8v.3c-1,0-2-.2-2.9-.4Zm32,36.1h-27.1V21.1l11.3-8.2c.6,.5,1.4,.8,2.2,.8s1.6-.3,2.2-.8l11.3,8.2V56.6Z"/>
      <path d="M52.8,26.4c-.4-.3-.9-.3-1.2,0l-9.3,7.4c-.4,.3-.5,1-.2,1.4,.3,.4,1,.5,1.4,.2l.9-.7v8.5c0,.5,.4,1,1,1h13.6c.5,0,1-.4,1-1v-8.5l.9,.7c.2,.1,.4,.2,.6,.2,.3,0,.6-.1,.8-.4,.3-.4,.3-1.1-.2-1.4l-9.3-7.4Zm.4,15.8h-2v-2.3c0-.5,.4-1,1-1s1,.4,1,1v2.3Zm4.8,0h-2.8v-2.3c0-1.6-1.3-3-3-3s-3,1.3-3,3v2.3h-2.8v-9.1l5.8-4.6,5.8,4.6v9.1Z"/>
      <path d="M58.9,46.1h-13.6c-.5,0-1,.4-1,1v4c0,.5,.4,1,1,1h13.6c.5,0,1-.4,1-1v-4c0-.5-.4-1-1-1Zm-1,4h-11.6v-2h11.6v2Z"/>
    </g>
  </g>
</svg>