<?xml version="1.0" encoding="UTF-8"?>
<svg id="uuid-6677e8d6-4652-41b3-a040-0ac857bd3fc9" data-name="Layer 2" xmlns="http://www.w3.org/2000/svg" width="67.7" height="67.7" viewBox="0 0 67.7 67.7">
  <g id="uuid-27f29a62-8cb9-4955-952e-30351a522111" data-name="Layer 1">
    <g>
      <path d="M66.6,14.1c-1.3-1.1-3.1-.9-4.2,.4l-3.2,3.8-.3-.2c-.4-.4-1-.3-1.4,.1l-4.1,4.8V3.6c0-2-1.6-3.6-3.6-3.6H3.6C1.6,0,0,1.6,0,3.6v60.4c0,2,1.6,3.6,3.6,3.6H49.9c2,0,3.6-1.6,3.6-3.6v-27.6l8.3-9.9,1.3,1.1c.1,.1,.2,.3,0,.5l-7.6,9.1c-.4,.4-.3,1,.1,1.4,.2,.2,.4,.2,.6,.2s.6-.1,.8-.4l7.6-9.1c.8-1,.7-2.4-.3-3.3l-1.3-1.1,1.1-1.3c.2-.2,.3-.5,.2-.7,0-.3-.1-.5-.4-.7l-.3-.2,3.2-3.8c1.1-1.3,.9-3.1-.4-4.2Zm-15.1,49.9c0,.9-.7,1.7-1.7,1.7H3.6c-.9,0-1.7-.7-1.7-1.7V3.6c0-.9,.7-1.7,1.7-1.7H49.9c.9,0,1.7,.7,1.7,1.7V25.4l-8.4,10c-.3,.3-.3,.8,0,1.1l-9.9,11.8c-2.1,2.5-3.4,5.6-3.8,8.9,0,.3,0,.7,.3,.9,.2,.2,.4,.2,.6,.2s.2,0,.3,0c3.2-.9,6-2.8,8.1-5.3l9.9-11.8c.1,0,.2,0,.3,0s0,0,0,0c.3,0,.5-.1,.7-.4l1.8-2.2v25.3Zm-7-26.2l2.5,2.1-9.9,11.8c-1.5,1.8-3.5,3.2-5.6,4.1,.5-2.3,1.6-4.4,3.1-6.3l9.9-11.8Zm4.3,1l-3.5-3,13.2-15.7,3.5,3-13.2,15.7Zm16.6-21.9l-3.2,3.8-1.5-1.3,3.2-3.8c.4-.4,1-.5,1.4-.1,.4,.4,.5,1,.1,1.4Z"/>
      <path d="M8.5,14.5l.9-.7v8.5c0,.5,.4,1,1,1h13.6c.5,0,1-.4,1-1V13.8l.9,.7c.2,.1,.4,.2,.6,.2,.3,0,.6-.1,.8-.4,.3-.4,.3-1.1-.2-1.4l-9.3-7.4c-.4-.3-.9-.3-1.2,0L7.2,12.9c-.4,.3-.5,1-.2,1.4,.3,.4,1,.5,1.4,.2Zm9.6,6.8h-2v-2.3c0-.5,.4-1,1-1s1,.4,1,1v2.3Zm-1-13.8l5.8,4.6v9.1h-2.8v-2.3c0-1.6-1.3-3-3-3s-3,1.3-3,3v2.3h-2.8V12.2l5.8-4.6Z"/>
      <path d="M29.7,23.3h16c.5,0,1-.4,1-1s-.4-1-1-1h-16c-.5,0-1,.4-1,1s.4,1,1,1Z"/>
      <path d="M33.8,18h11.8c.5,0,1-.4,1-1s-.4-1-1-1h-11.8c-.5,0-1,.4-1,1s.4,1,1,1Z"/>
      <path d="M7.9,30.6h11.2c.5,0,1-.4,1-1s-.4-1-1-1H7.9c-.5,0-1,.4-1,1s.4,1,1,1Z"/>
      <path d="M45.7,28.6H23.3c-.5,0-1,.4-1,1s.4,1,1,1h22.4c.5,0,1-.4,1-1s-.4-1-1-1Z"/>
      <path d="M7.9,40.5H25.7c.5,0,1-.4,1-1s-.4-1-1-1H7.9c-.5,0-1,.4-1,1s.4,1,1,1Z"/>
      <path d="M35.6,38.5h-4.8c-.5,0-1,.4-1,1s.4,1,1,1h4.8c.5,0,1-.4,1-1s-.4-1-1-1Z"/>
      <path d="M27.5,48.5H7.9c-.5,0-1,.4-1,1s.4,1,1,1H27.5c.5,0,1-.4,1-1s-.4-1-1-1Z"/>
      <path d="M21.1,55.1H10.5c-2,0-3.6,1.6-3.6,3.6s1.6,3.6,3.6,3.6h10.6c2,0,3.6-1.6,3.6-3.6s-1.6-3.6-3.6-3.6Zm0,5.3H10.5c-.9,0-1.7-.7-1.7-1.7s.7-1.7,1.7-1.7h10.6c.9,0,1.7,.7,1.7,1.7s-.7,1.7-1.7,1.7Z"/>
    </g>
  </g>
</svg>