<?xml version="1.0" encoding="UTF-8"?>
<svg id="uuid-a31da6a4-fb01-41a0-9139-ed436b5642af" data-name="Layer 2" xmlns="http://www.w3.org/2000/svg" width="68" height="48.5" viewBox="0 0 68 48.5">
  <g id="uuid-0cda123c-4650-4eb8-afc5-4c2a7e256195" data-name="Layer 1">
    <g>
      <path d="M64.3,0H3.7C1.6,0,0,1.6,0,3.7V44.8c0,2,1.6,3.7,3.7,3.7h60.7c2,0,3.7-1.6,3.7-3.7V3.7c0-2-1.6-3.7-3.7-3.7ZM3.7,2h60.7c.9,0,1.7,.7,1.7,1.7v3H2V3.7c0-.9,.7-1.7,1.7-1.7Zm60.7,44.5H3.7c-.9,0-1.7-.7-1.7-1.7V8.6H66V44.8c0,.9-.7,1.7-1.7,1.7Z"/>
      <path d="M56.4,5.3h1.3c.6,0,1-.4,1-1s-.4-1-1-1h-1.3c-.6,0-1,.4-1,1s.4,1,1,1Z"/>
      <path d="M61.7,5.3h1.3c.6,0,1-.4,1-1s-.4-1-1-1h-1.3c-.6,0-1,.4-1,1s.4,1,1,1Z"/>
      <path d="M30.8,21.3l-12-7.9c-.3-.2-.8-.2-1.1,0l-12,7.9c-.3,.2-.4,.5-.4,.8v4.5c0,.4,.2,.7,.5,.9,.3,.2,.7,.2,1,0l.6-.4v12.8h-1.2c-.6,0-1,.4-1,1s.4,1,1,1H30.2c.6,0,1-.4,1-1s-.4-1-1-1h-1.2v-12.8l.6,.4c.2,.1,.4,.2,.5,.2s.3,0,.5-.1c.3-.2,.5-.5,.5-.9v-4.5c0-.3-.2-.6-.4-.8Zm-10.2,18.5h-4.6v-6.3c0-1.3,1-2.3,2.3-2.3s2.3,1,2.3,2.3v6.3Zm6.5,0h-4.5v-6.3c0-2.4-1.9-4.3-4.3-4.3s-4.3,1.9-4.3,4.3v6.3h-4.5v-14.1l8.8-5.8,8.8,5.8v14.1Zm2.2-15l-10.4-6.8c-.2-.1-.4-.2-.5-.2s-.4,0-.5,.2l-10.4,6.8v-2.1l11-7.2,11,7.2v2.1Z"/>
      <path d="M59,34.5h-10.6c-2,0-3.7,1.6-3.7,3.7s1.6,3.7,3.7,3.7h10.6c2,0,3.7-1.6,3.7-3.7s-1.6-3.7-3.7-3.7Zm0,5.3h-10.6c-.9,0-1.7-.7-1.7-1.7s.7-1.7,1.7-1.7h10.6c.9,0,1.7,.7,1.7,1.7s-.7,1.7-1.7,1.7Z"/>
      <path d="M37.8,20.6h4.4c.6,0,1-.4,1-1s-.4-1-1-1h-4.4c-.6,0-1,.4-1,1s.4,1,1,1Z"/>
      <path d="M61.7,18.6h-15.2c-.6,0-1,.4-1,1s.4,1,1,1h15.2c.6,0,1-.4,1-1s-.4-1-1-1Z"/>
      <path d="M61.7,23.9h-23.9c-.6,0-1,.4-1,1s.4,1,1,1h23.9c.6,0,1-.4,1-1s-.4-1-1-1Z"/>
      <path d="M61.7,29.2h-15.2c-.6,0-1,.4-1,1s.4,1,1,1h15.2c.6,0,1-.4,1-1s-.4-1-1-1Z"/>
    </g>
  </g>
</svg>