<?xml version="1.0" encoding="UTF-8"?>
<svg id="uuid-f83bc9ce-63f9-4996-b639-bb23835b361b" data-name="Layer 2" xmlns="http://www.w3.org/2000/svg" width="61.5" height="75.9" viewBox="0 0 61.5 75.9">
  <g id="uuid-8d9c7788-b105-48db-a498-99585ce6f16c" data-name="Layer 1">
    <g>
      <path d="M30.1,.1L1.3,10.9c-.8,.3-1.3,1-1.3,1.8v19.6c0,9.5,2.9,18.6,8.3,26.4,5.4,7.8,12.9,13.7,21.8,17,.2,0,.5,.1,.7,.1s.5,0,.7-.1c8.9-3.3,16.4-9.2,21.8-17,5.4-7.8,8.3-16.9,8.3-26.4V12.8c0-.8-.5-1.6-1.3-1.8L31.5,.1c-.4-.2-.9-.2-1.4,0Zm27.5,14v18.3c0,17.3-10.8,33.1-26.8,39.5C14.7,65.5,3.9,49.7,3.9,32.4V14.1L30.8,4.1l26.8,10.1Z"/>
      <path d="M21.7,35.9c-.8-.8-2-.8-2.8,0-.8,.8-.8,2,0,2.8l7.4,7.7c.4,.4,.9,.6,1.4,.6s1-.2,1.4-.6l13.5-14c.8-.8,.7-2,0-2.8-.8-.8-2-.7-2.8,0l-12.1,12.5-6-6.2Z"/>
    </g>
  </g>
</svg>