<?xml version="1.0" encoding="UTF-8"?>
<svg id="uuid-c6b53b15-afc6-4057-821d-864b618c5a93" data-name="Layer 2" xmlns="http://www.w3.org/2000/svg" width="68" height="68" viewBox="0 0 68 68">
  <g id="uuid-5b96870d-3b14-469e-b317-f08bd94ba3aa" data-name="Layer 1">
    <g>
      <path d="M36.7,60.7c.6,0,1-.4,1-1v-1.3c0-.6-.4-1-1-1s-1,.4-1,1v1.3c0,.6,.4,1,1,1Z"/>
      <path d="M67,66h-2.2c-.5-3.6-3.5-6.3-7.2-6.6v-12.7l3.8,2.3c.2,0,.3,.1,.5,.1s.3,0,.5-.1c.3-.2,.5-.5,.5-.9v-6.6c0-.3-.2-.7-.5-.8l-13.5-8.4c2.9-3.4,4.7-7.9,4.7-12.7C53.6,8.8,44.8,0,34,0S14.4,8.8,14.4,19.6s1.8,9.3,4.7,12.7l-13.5,8.4c-.3,.2-.5,.5-.5,.8v6.6c0,.4,.2,.7,.5,.9,.2,0,.3,.1,.5,.1s.4,0,.5-.1l3.8-2.3v12.7c-3.7,.3-6.8,3.1-7.2,6.6H1c-.6,0-1,.4-1,1s.4,1,1,1H67c.6,0,1-.4,1-1s-.4-1-1-1Zm-4.2,0h-16.4c.5-1.5,1.9-2.6,3.6-2.6s.9,0,1.3,.2c.4,.1,.8,0,1.1-.3,1.1-1.3,2.8-2,4.5-2,2.9,0,5.3,2,5.8,4.6Zm-1.9-19.7l-16.5-10.2c1.1-.7,2.1-1.5,3.1-2.4l13.4,8.3v4.3ZM34,2c9.7,0,17.6,7.9,17.6,17.6s-7.9,17.6-17.6,17.6-17.6-7.9-17.6-17.6S24.3,2,34,2ZM7.1,42.1l13.4-8.3c.9,.9,2,1.7,3.1,2.4L7.1,46.4v-4.3Zm18.5-4.8c2.6,1.2,5.4,1.9,8.4,1.9s5.9-.7,8.4-1.9l13.2,8.1v14.1c-1.6,.3-3.1,1-4.2,2.1-.4-.1-.9-.2-1.3-.2-2.8,0-5.2,2-5.7,4.6h-4.1v-14.9c0-.6-.4-1-1-1h-10.6c-.6,0-1,.4-1,1v14.9h-4.1c-.5-2.6-2.8-4.6-5.7-4.6s-.9,0-1.3,.2c-1.2-1.1-2.6-1.8-4.2-2.1v-14.1l13.2-8.1Zm12.7,28.7h-8.6v-13.9h8.6v13.9Zm-27.3-4.6c1.8,0,3.4,.7,4.5,2,.3,.3,.7,.4,1.1,.3,.4-.1,.9-.2,1.3-.2,1.7,0,3.2,1.1,3.6,2.6H5.2c.5-2.6,2.9-4.6,5.8-4.6Z"/>
      <path d="M34,33.9c7.9,0,14.3-6.4,14.3-14.3s-6.4-14.3-14.3-14.3-14.3,6.4-14.3,14.3,6.4,14.3,14.3,14.3Zm0-26.6c6.8,0,12.3,5.5,12.3,12.3s-5.5,12.3-12.3,12.3-12.3-5.5-12.3-12.3,5.5-12.3,12.3-12.3Z"/>
      <path d="M32.6,20.6h2.8c.9,0,1.6,.7,1.6,1.6s-.7,1.6-1.6,1.6h-4.6c-.6,0-1,.4-1,1s.4,1,1,1h.5v1.6c0,.6,.4,1,1,1s1-.4,1-1v-1.6h1.3v1.6c0,.6,.4,1,1,1s1-.4,1-1v-1.8c1.4-.5,2.3-1.8,2.3-3.3s-1.6-3.6-3.6-3.6h-2.8c-.9,0-1.6-.7-1.6-1.6s.7-1.6,1.6-1.6h4.6c.6,0,1-.4,1-1s-.4-1-1-1h-.5v-1.6c0-.6-.4-1-1-1s-1,.4-1,1v1.6h-1.3v-1.6c0-.6-.4-1-1-1s-1,.4-1,1v1.8c-1.4,.5-2.3,1.8-2.3,3.3s1.6,3.6,3.6,3.6Z"/>
    </g>
  </g>
</svg>