<?xml version="1.0" encoding="UTF-8"?>
<svg id="uuid-f459e37b-72d1-4241-85aa-913a63aff8d6" data-name="Layer 2" xmlns="http://www.w3.org/2000/svg" width="67.7" height="67.7" viewBox="0 0 67.7 67.7">
  <g id="uuid-1a9731dc-77e4-47e2-861a-f699c37a58e7" data-name="Layer 1">
    <g>
      <path d="M33.8,42.3c6.4,0,11.6-5.2,11.6-11.6s-5.2-11.6-11.6-11.6-11.6,5.2-11.6,11.6,5.2,11.6,11.6,11.6Zm-9.5-10.6h8.5v8.5c-4.5-.5-8.1-4-8.5-8.5Zm10.5,8.5v-8.5h8.5c-.5,4.5-4,8.1-8.5,8.5Zm8.5-10.5h-8.5v-8.5c4.5,.5,8.1,4,8.5,8.5Zm-10.5-8.5v8.5h-8.5c.5-4.5,4-8.1,8.5-8.5Z"/>
      <path d="M36.5,57.8c.5,0,1-.4,1-1v-1.3c0-.5-.4-1-1-1s-1,.4-1,1v1.3c0,.5,.4,1,1,1Z"/>
      <path d="M66.7,61.7h-.9c-.4-2.9-2.5-5.3-5.2-6.2V26l3.2,1.7c.1,0,.3,.1,.5,.1s.4,0,.5-.1c.3-.2,.5-.5,.5-.8v-5.3c0-.4-.2-.7-.5-.9l-6.1-3.2V7.3h1c.5,0,1-.4,1-1V1c0-.5-.4-1-1-1h-13.2c-.5,0-1,.4-1,1V6.3c0,.5,.4,1,1,1h1v4.3l-13.1-6.8c-.3-.1-.6-.1-.9,0L3,20.6c-.3,.2-.5,.5-.5,.9v5.3c0,.3,.2,.7,.5,.8,.3,.2,.7,.2,1,0l3.2-1.7v29.6c-2.8,.9-4.8,3.3-5.2,6.2H1c-.5,0-1,.4-1,1v4c0,.5,.4,1,1,1H66.7c.5,0,1-.4,1-1v-4c0-.5-.4-1-1-1Zm-2.9,0h-16.3c.5-1.5,1.9-2.6,3.6-2.6s.9,0,1.3,.2c.4,.1,.8,0,1.1-.3,1.1-1.3,2.8-2,4.5-2,2.9,0,5.3,2,5.8,4.6ZM47.4,2h11.2v3.3h-11.2V2Zm2,5.3h7.3v9.1l-7.3-3.8V7.3ZM4.4,22.1L33.8,6.7l29.4,15.3v3.1l-29-15.1c-.1,0-.3-.1-.5-.1s-.3,0-.5,.1L4.4,25.1v-3.1Zm4.6,2.9l24.8-12.9,24.8,12.9v30.2c-.2,0-.4,0-.6,0-2.1,0-4.1,.8-5.6,2.2-.4,0-.9-.1-1.3-.1-2.8,0-5.1,2-5.6,4.5h-4.7v-13.5c0-.5-.4-1-1-1h-11.9c-.5,0-1,.4-1,1v13.5h-4.7c-.5-2.6-2.8-4.5-5.6-4.5s-.9,0-1.3,.1c-1.5-1.4-3.5-2.2-5.6-2.2s-.4,0-.6,0V25Zm29.7,36.8h-9.9v-12.6h9.9v12.6Zm-29.1-4.6c1.7,0,3.4,.7,4.5,2,.3,.3,.7,.4,1.1,.3,.4-.1,.9-.2,1.3-.2,1.7,0,3.1,1.1,3.6,2.6H3.9c.5-2.6,2.9-4.6,5.8-4.6Zm56,8.6H2v-2h63.7v2Z"/>
    </g>
  </g>
</svg>