<?xml version="1.0" encoding="UTF-8"?>
<svg id="uuid-5a9001e3-2208-41ee-a9de-8ae6a01680e9" data-name="Layer 2" xmlns="http://www.w3.org/2000/svg" width="28.6" height="39.8" viewBox="0 0 28.6 39.8">
  <defs>
    <style>
      .uuid-5718d922-e0ed-4f0e-8486-cfa05b8ace74 {
        fill: #231f20;
      }
    </style>
  </defs>
  <g id="uuid-93ff341d-e1ff-475c-ab51-87376ed45af0" data-name="Layer 1">
    <g>
      <path class="uuid-5718d922-e0ed-4f0e-8486-cfa05b8ace74" d="M21.2,.8v3.8h-.3S18.5,0,12.3,0,0,7.1,0,14.4s4.1,14.4,12.3,14.4,8.4-3.8,8.4-3.8h.3v1.4c0,4.9-1.7,7.6-6.5,7.6s-5.7-4.1-5.7-4.1H1.1s.3,9.8,13.3,9.8,14.2-5.7,14.2-13.9V.8h-7.4Zm-5.8,22.3c-1.5,.1-2.6-.1-3.3-.4-2.6-.9-4.6-3.4-4.7-6.2,0-1,0-1.9,0-2.9,0-.6-.3-.9-.7-1.3l-1.7-1.3,1.6-1.3c.6-.4,1.1-.9,1.5-1.6,.7-1.1,1.9-1.6,3.1-1.7,1.1,0,2.3,.4,3.1,1.2,1.6,1.5,3.1,3.1,4.6,4.6,.8,.8,1.5,1.5,2.3,2.3,0,4.2-2,8-5.9,8.4Z"/>
      <path class="uuid-5718d922-e0ed-4f0e-8486-cfa05b8ace74" d="M11.4,8.6c-.7,0-1.2,.5-1.2,1.2s.5,1.2,1.2,1.2,1.2-.5,1.2-1.2-.5-1.2-1.2-1.2Z"/>
    </g>
  </g>
</svg>