<?xml version="1.0" encoding="UTF-8"?>
<svg id="uuid-b362bb08-dd14-4063-824d-80308253cf21" data-name="Layer 2" xmlns="http://www.w3.org/2000/svg" width="220.2" height="90.7" viewBox="0 0 220.2 90.7">
  <defs>
    <style>
      .uuid-68e82226-404b-4476-be53-aa1658ae9841 {
        fill: #231f20;
      }
    </style>
  </defs>
  <g id="uuid-3c32add1-9326-4ffa-9837-9289519e7dd5" data-name="Layer 1">
    <g>
      <g>
        <path class="uuid-68e82226-404b-4476-be53-aa1658ae9841" d="M46.8,4.8V13.3h-.6S40.8,3,27,3,0,18.7,0,34.9s9,31.8,27,31.8,18.6-8.4,18.6-8.4h.6v3c0,10.8-3.7,16.8-14.4,16.8s-12.6-9-12.6-9H2.4s.6,21.6,29.4,21.6,31.2-12.6,31.2-30.6V4.8h-16.2Zm-12.8,49.1c-3.3,.2-5.7-.3-7.2-.8-5.7-2-10.1-7.4-10.3-13.7,0-2.1,0-4.2,0-6.3,0-1.3-.6-2.1-1.6-2.9l-3.7-2.8,3.6-2.8c1.3-1,2.4-2,3.3-3.5,1.5-2.4,4.1-3.6,6.9-3.7,2.5,0,5,.8,6.8,2.6,3.4,3.3,6.8,6.8,10.2,10.2,1.7,1.7,3.4,3.4,5.1,5-.1,9.2-4.4,17.6-13.1,18.6Z"/>
        <path class="uuid-68e82226-404b-4476-be53-aa1658ae9841" d="M25.2,22c-1.5,0-2.7,1.2-2.7,2.7s1.2,2.7,2.7,2.7,2.7-1.2,2.7-2.7-1.2-2.7-2.7-2.7Z"/>
      </g>
      <g>
        <path class="uuid-68e82226-404b-4476-be53-aa1658ae9841" d="M77.9,19.5h.9c.9,0,1.1-.2,1.1-1.2V4.9h3.5v13.3c0,2.9-.6,4.1-4.1,4.1h-1.4v-2.9ZM81.6,0c1.1,0,2,.9,2,2s-.9,2-2,2-2-.9-2-2,.9-2,2-2Z"/>
        <path class="uuid-68e82226-404b-4476-be53-aa1658ae9841" d="M97.3,17.8h-3.4v-2.1h-.1s-1.1,2.5-4,2.5-4.6-2.4-4.6-5.4V4.9h3.5v7.2c0,2.2,.6,3.2,2.2,3.2s2.9-1.1,2.9-3.7V4.9h3.5v13Z"/>
        <path class="uuid-68e82226-404b-4476-be53-aa1658ae9841" d="M99.1,8.9c.2-3.3,2.9-4.4,5.9-4.4s5.6,1.1,5.6,4.5v8.9h-3.5v-2.5h-.1s-.8,2.9-4.1,2.9-4.1-1.1-4.1-3.5,2-3.5,4.1-4.1c2.2-.5,4.2-.7,4.2-2.2s-.7-1.6-2.1-1.6-2.3,.6-2.4,2h-3.5Zm5.2,3.5c-1.1,.3-2.1,.8-2.1,2s.7,1.6,1.8,1.6c2.4,0,3-2.7,3-4.7-.6,.5-1.7,.8-2.7,1Z"/>
        <path class="uuid-68e82226-404b-4476-be53-aa1658ae9841" d="M112.5,4.9h3.4v2.1h.1s1.1-2.5,4-2.5,4.6,2.4,4.6,5.4v8h-3.5v-7.2c0-2.2-.6-3.2-2.2-3.2s-2.9,1.1-2.9,3.7v6.7h-3.5V4.9Z"/>
        <path class="uuid-68e82226-404b-4476-be53-aa1658ae9841" d="M145,16.3c0,3.7-2,6.4-6.5,6.4s-6.1-4.5-6.1-4.5h3.5s.1,1.9,2.6,1.9,3-1.2,3-3.5v-.6h-.1s-1.1,1.7-3.9,1.7-5.6-3.2-5.6-6.6,1.9-6.6,5.6-6.6,4,2.1,4,2.1h.1v-1.7h3.4v11.5Zm-6.5-9.2c-2.1,0-3.1,1.9-3.1,4s1,4,3.1,4,3.1-1.9,3.1-4-1-4-3.1-4Z"/>
        <path class="uuid-68e82226-404b-4476-be53-aa1658ae9841" d="M146.9,8.9c.2-3.3,2.9-4.4,5.9-4.4s5.6,1.1,5.6,4.5v8.9h-3.5v-2.5h-.1s-.8,2.9-4.1,2.9-4.1-1.1-4.1-3.5,2-3.5,4.1-4.1c2.2-.5,4.2-.7,4.2-2.2s-.7-1.6-2.1-1.6-2.3,.6-2.4,2h-3.5Zm5.2,3.5c-1.1,.3-2.1,.8-2.1,2s.7,1.6,1.8,1.6c2.4,0,3-2.7,3-4.7-.6,.5-1.7,.8-2.7,1Z"/>
        <path class="uuid-68e82226-404b-4476-be53-aa1658ae9841" d="M161.9,0c1.1,0,2,.9,2,2s-.9,2-2,2-2-.9-2-2,.9-2,2-2Zm1.7,17.8h-3.5V4.9h3.5v13Z"/>
        <path class="uuid-68e82226-404b-4476-be53-aa1658ae9841" d="M178.2,16.3c0,3.7-2,6.4-6.5,6.4s-6.1-4.5-6.1-4.5h3.5s.1,1.9,2.6,1.9,3-1.2,3-3.5v-.6h-.1s-1.1,1.7-3.9,1.7-5.6-3.2-5.6-6.6,1.9-6.6,5.6-6.6,4,2.1,4,2.1h.1v-1.7h3.4v11.5Zm-6.5-9.2c-2.1,0-3.1,1.9-3.1,4s1,4,3.1,4,3.1-1.9,3.1-4-1-4-3.1-4Z"/>
        <g>
          <path class="uuid-68e82226-404b-4476-be53-aa1658ae9841" d="M87.3,29s.1,0,.3,0v3.6c-.2,0-.4,0-.6,0s-.3,0-.4,0c-1.4,0-2.3,.5-2.8,1.4-.3,.5-.4,1.3-.4,2.4v6.3h-3.5v-13.3h3.3v2.3c.5-.9,1-1.5,1.4-1.8,.6-.5,1.5-.8,2.5-.8s.1,0,.2,0Z"/>
          <path class="uuid-68e82226-404b-4476-be53-aa1658ae9841" d="M95.2,29.2c4.3,0,6.2,3.1,6.2,6.9s0,.7,0,.7h-9.2c.2,2,1,3.5,3.1,3.5s2.5-2,2.5-2h3.5s-.7,4.6-6.1,4.6-6.5-3.1-6.5-6.9,2.2-6.9,6.5-6.9Zm-2.9,5.4h5.5c-.2-1.6-.9-2.7-2.6-2.7s-2.6,1.1-2.9,2.7Z"/>
          <path class="uuid-68e82226-404b-4476-be53-aa1658ae9841" d="M107,42.6h-3.5V24.6h3.5v18Z"/>
          <path class="uuid-68e82226-404b-4476-be53-aa1658ae9841" d="M109.8,33.6c.2-3.3,2.9-4.4,5.9-4.4s5.6,1.1,5.6,4.5v8.9h-3.5v-2.5h-.1s-.8,2.9-4.1,2.9-4.1-1.1-4.1-3.5,2-3.5,4.1-4.1c2.2-.5,4.2-.7,4.2-2.2s-.7-1.6-2.1-1.6-2.3,.6-2.4,2h-3.5Zm5.2,3.5c-1.1,.3-2.1,.8-2.1,2s.7,1.6,1.8,1.6c2.4,0,3-2.7,3-4.7-.6,.5-1.7,.8-2.7,1Z"/>
          <path class="uuid-68e82226-404b-4476-be53-aa1658ae9841" d="M129.2,29.2c5.7,0,6.1,5.1,6.1,5.1h-3.5s-.1-2.5-2.6-2.5-3,1.9-3,4.2,.8,4.2,3,4.2,2.6-2.5,2.6-2.5h3.5s-.4,5.1-6.1,5.1-6.5-3.1-6.5-6.9,2.2-6.9,6.5-6.9Z"/>
          <path class="uuid-68e82226-404b-4476-be53-aa1658ae9841" d="M138.5,24.7c1.1,0,2,.9,2,2s-.9,2-2,2-2-.9-2-2,.9-2,2-2Zm1.7,17.8h-3.5v-13h3.5v13Z"/>
          <path class="uuid-68e82226-404b-4476-be53-aa1658ae9841" d="M148.3,29.2c4.3,0,6.6,3.1,6.6,6.9s-2.3,6.9-6.6,6.9-6.6-3.1-6.6-6.9,2.3-6.9,6.6-6.9Zm0,11.1c2.2,0,3.1-1.9,3.1-4.2s-.9-4.2-3.1-4.2-3.1,1.9-3.1,4.2,.9,4.2,3.1,4.2Z"/>
          <path class="uuid-68e82226-404b-4476-be53-aa1658ae9841" d="M156.4,29.6h3.4v2.1h.1s1.1-2.5,4-2.5,4.6,2.4,4.6,5.4v8h-3.5v-7.2c0-2.2-.6-3.2-2.2-3.2s-2.9,1.1-2.9,3.7v6.7h-3.5v-13Z"/>
          <path class="uuid-68e82226-404b-4476-be53-aa1658ae9841" d="M176.5,29.2c4.3,0,6.2,3.1,6.2,6.9s0,.7,0,.7h-9.2c.2,2,1,3.5,3.1,3.5s2.5-2,2.5-2h3.5s-.7,4.6-6.1,4.6-6.5-3.1-6.5-6.9,2.2-6.9,6.5-6.9Zm-2.9,5.4h5.5c-.2-1.6-.9-2.7-2.6-2.7s-2.6,1.1-2.9,2.7Z"/>
          <path class="uuid-68e82226-404b-4476-be53-aa1658ae9841" d="M187.2,38.3s0,2.2,2.7,2.2,2.4-.9,2.4-1.6c0-2.7-8.2-.6-8.2-5.6s2.1-4.1,5.6-4.1c5,0,5.7,2.9,5.7,4.1h-3.4s0-1.7-2.4-1.7-2.1,.7-2.1,1.5c0,2.2,8.2,.6,8.2,5.5s-2.1,4.4-5.9,4.4-6.1-3.1-6.1-4.6h3.4Z"/>
        </g>
        <path class="uuid-68e82226-404b-4476-be53-aa1658ae9841" d="M81.6,49.4c1.1,0,2,.9,2,2s-.9,2-2,2-2-.9-2-2,.9-2,2-2Zm1.7,17.8h-3.5v-13h3.5v13Z"/>
        <path class="uuid-68e82226-404b-4476-be53-aa1658ae9841" d="M85.3,54.3h3.4v2.1h.1s1.1-2.5,4-2.5,4.6,2.4,4.6,5.4v8h-3.5v-7.2c0-2.2-.6-3.2-2.2-3.2s-2.9,1.1-2.9,3.7v6.7h-3.5v-13Z"/>
        <path class="uuid-68e82226-404b-4476-be53-aa1658ae9841" d="M106.8,60c0-2.2-.4-3.2-1.8-3.2s-2.3,1.1-2.3,3.7v6.7h-3.5v-13h3.4v2.1h.1s.9-2.5,3.5-2.5,3.2,1,3.7,2.5h.1s1.1-2.5,3.7-2.5,4.1,2.4,4.1,5.4v8h-3.5v-7.2c0-2.2-.4-3.2-1.8-3.2s-2.3,1.1-2.3,3.7v6.7h-3.5v-7.2Z"/>
        <path class="uuid-68e82226-404b-4476-be53-aa1658ae9841" d="M126,53.9c4.3,0,6.6,3.1,6.6,6.9s-2.3,6.9-6.6,6.9-6.6-3.1-6.6-6.9,2.3-6.9,6.6-6.9Zm0,11.1c2.2,0,3.1-1.9,3.1-4.2s-.9-4.2-3.1-4.2-3.1,1.9-3.1,4.2,.9,4.2,3.1,4.2Z"/>
        <path class="uuid-68e82226-404b-4476-be53-aa1658ae9841" d="M146.1,55.6c1,1.3,1.5,2.9,1.5,4.9s-.5,3.8-1.5,5.1c-1,1.4-2.3,2-4.1,2s-2-.2-2.7-.7c-.4-.3-.8-.7-1.3-1.4v1.7h-3.4v-17.9h3.5v6.4c.4-.6,.9-1.1,1.5-1.4,.6-.4,1.4-.6,2.4-.6,1.8,0,3.1,.6,4.1,1.9Zm-2.9,8.1c.5-.7,.7-1.7,.7-2.9s-.1-1.7-.4-2.3c-.5-1.2-1.3-1.8-2.6-1.8s-2.1,.6-2.6,1.7c-.2,.6-.4,1.4-.4,2.4s.3,2.1,.8,2.8c.5,.7,1.3,1.1,2.3,1.1s1.6-.4,2.1-1.1Z"/>
        <path class="uuid-68e82226-404b-4476-be53-aa1658ae9841" d="M151.3,49.4c1.1,0,2,.9,2,2s-.9,2-2,2-2-.9-2-2,.9-2,2-2Zm1.7,17.8h-3.5v-13h3.5v13Z"/>
        <path class="uuid-68e82226-404b-4476-be53-aa1658ae9841" d="M158.9,67.3h-3.5v-18h3.5v18Z"/>
        <path class="uuid-68e82226-404b-4476-be53-aa1658ae9841" d="M163.5,49.4c1.1,0,2,.9,2,2s-.9,2-2,2-2-.9-2-2,.9-2,2-2Zm1.7,17.8h-3.5v-13h3.5v13Z"/>
        <path class="uuid-68e82226-404b-4476-be53-aa1658ae9841" d="M167,58.3c.2-3.3,2.9-4.4,5.9-4.4s5.6,1.1,5.6,4.5v8.9h-3.5v-2.5h-.1s-.8,2.9-4.1,2.9-4.1-1.1-4.1-3.5,2-3.5,4.1-4.1c2.2-.6,4.2-.7,4.2-2.2s-.7-1.6-2.1-1.6-2.3,.6-2.4,2h-3.5Zm5.2,3.5c-1.1,.3-2.1,.8-2.1,2s.7,1.6,1.8,1.6c2.4,0,3-2.7,3-4.7-.6,.5-1.7,.8-2.7,1Z"/>
        <path class="uuid-68e82226-404b-4476-be53-aa1658ae9841" d="M188.3,53.7s.1,0,.3,0v3.6c-.2,0-.4,0-.6,0s-.3,0-.4,0c-1.4,0-2.3,.5-2.8,1.4-.3,.5-.4,1.3-.4,2.4v6.3h-3.5v-13.3h3.3v2.3c.5-.9,1-1.5,1.4-1.8,.6-.5,1.5-.8,2.5-.8s.1,0,.2,0Z"/>
        <path class="uuid-68e82226-404b-4476-be53-aa1658ae9841" d="M191.8,49.4c1.1,0,2,.9,2,2s-.9,2-2,2-2-.9-2-2,.9-2,2-2Zm1.7,17.8h-3.5v-13h3.5v13Z"/>
        <path class="uuid-68e82226-404b-4476-be53-aa1658ae9841" d="M195.3,58.3c.2-3.3,2.9-4.4,5.9-4.4s5.6,1.1,5.6,4.5v8.9h-3.5v-2.5h-.1s-.8,2.9-4.1,2.9-4.1-1.1-4.1-3.5,2-3.5,4.1-4.1c2.2-.6,4.2-.7,4.2-2.2s-.7-1.6-2.1-1.6-2.3,.6-2.4,2h-3.5Zm5.2,3.5c-1.1,.3-2.1,.8-2.1,2s.7,1.6,1.8,1.6c2.4,0,3-2.7,3-4.7-.6,.5-1.7,.8-2.7,1Z"/>
        <path class="uuid-68e82226-404b-4476-be53-aa1658ae9841" d="M211.6,63s0,2.2,2.7,2.2,2.4-.9,2.4-1.6c0-2.7-8.2-.6-8.2-5.6s2.1-4.1,5.6-4.1c5,0,5.7,2.9,5.7,4.1h-3.4s0-1.7-2.4-1.7-2.1,.7-2.1,1.5c0,2.2,8.2,.6,8.2,5.5s-2.1,4.4-5.9,4.4-6.1-3.1-6.1-4.6h3.4Z"/>
      </g>
    </g>
  </g>
</svg>